<svg width="52" height="52" viewBox="0 0 52 52" fill="none" xmlns="http://www.w3.org/2000/svg">
<g id="like-thumbs-up-sticker">
<path id="Vector" d="M48.75 26C48.75 27.95 46.3667 29.5533 45.89 31.33C45.4133 33.1067 46.6483 35.7717 45.7167 37.375C44.785 38.9783 41.8817 39.2167 40.56 40.56C39.2383 41.9033 39.0217 44.7633 37.375 45.695C35.7283 46.6267 33.1717 45.3917 31.33 45.89C29.4883 46.3883 27.9283 48.75 26 48.75C24.0717 48.75 22.4683 46.3667 20.67 45.89C18.8717 45.4133 16.3367 46.6483 14.625 45.695C12.9133 44.7417 12.7833 41.8817 11.44 40.56C10.0967 39.2383 7.23667 39 6.28333 37.375C5.33 35.75 6.60833 33.1933 6.11 31.33C5.61167 29.4667 3.25 27.95 3.25 26C3.25 24.05 5.63333 22.4467 6.11 20.67C6.58667 18.8933 5.35167 16.3367 6.28333 14.625C7.215 12.9133 10.0967 12.7833 11.44 11.44C12.7833 10.0967 13 7.23667 14.625 6.28333C16.25 5.33 18.8067 6.60833 20.67 6.11C22.5333 5.61167 24.05 3.25 26 3.25C27.95 3.25 29.5533 5.63333 31.33 6.11C33.1067 6.58667 35.6633 5.35167 37.375 6.28333C39.0867 7.215 39.2167 10.0967 40.56 11.44C41.9033 12.7833 44.7633 13 45.7167 14.625C46.67 16.25 45.3917 18.8067 45.89 20.67C46.3883 22.5333 48.75 24.05 48.75 26Z" stroke="#155AB7" stroke-width="3" stroke-miterlimit="10" stroke-linecap="square"/>
<path id="Vector_2" d="M15.665 36.3351V17.7234" stroke="#155AB7" stroke-width="3" stroke-miterlimit="10"/>
<path id="Vector_3" d="M15.5133 32.1966H17.68L21.8183 34.3633H31.3517C32.1741 34.3634 32.9728 34.0883 33.6207 33.5817C34.2686 33.0752 34.7283 32.3664 34.9267 31.5683L36.1833 26.52C36.2632 26.2308 36.2997 25.9315 36.2917 25.6316C36.2917 24.6548 35.9036 23.7179 35.2128 23.0271C34.5221 22.3364 33.5852 21.9483 32.6083 21.9483H28.1667L29.6183 19.045C30.0296 18.2399 30.2448 17.349 30.2467 16.445C30.2495 16.0818 30.1805 15.7216 30.0435 15.3853C29.9065 15.0489 29.7042 14.743 29.4484 14.4852C29.1926 14.2274 28.8883 14.0228 28.553 13.8831C28.2178 13.7435 27.8582 13.6716 27.495 13.6716C27.0736 13.6791 26.6595 13.7825 26.2841 13.9739C25.9086 14.1654 25.5818 14.4399 25.3283 14.7766L19.8033 21.8616H15.665" stroke="#155AB7" stroke-width="3" stroke-miterlimit="10"/>
</g>
</svg>
