<svg width="16" height="16" viewBox="0 0 16 16" fill="none" xmlns="http://www.w3.org/2000/svg">
<g id="map-pin">
<path id="Vector" d="M13.1038 6.75C13.1038 10.5 8.10376 14.25 8.10376 14.25C8.10376 14.25 3.10376 10.5 3.10376 6.75C3.10376 5.42392 3.63054 4.15215 4.56823 3.21447C5.50591 2.27678 6.77768 1.75 8.10376 1.75C9.42984 1.75 10.7016 2.27678 11.6393 3.21447C12.577 4.15215 13.1038 5.42392 13.1038 6.75Z" stroke="#155AB7" stroke-linecap="round" stroke-linejoin="round"/>
<path id="Vector_2" d="M8.10376 8.625C9.13929 8.625 9.97876 7.78553 9.97876 6.75C9.97876 5.71447 9.13929 4.875 8.10376 4.875C7.06823 4.875 6.22876 5.71447 6.22876 6.75C6.22876 7.78553 7.06823 8.625 8.10376 8.625Z" stroke="#155AB7" stroke-linecap="round" stroke-linejoin="round"/>
</g>
</svg>
