<svg width="49" height="49" viewBox="0 0 49 49" fill="none" xmlns="http://www.w3.org/2000/svg">
<g id="Group 9">
<path id="Vector" d="M19.3217 20.6333C24.4671 20.6333 28.6383 16.4621 28.6383 11.3167C28.6383 6.17121 24.4671 2 19.3217 2C14.1762 2 10.005 6.17121 10.005 11.3167C10.005 16.4621 14.1762 20.6333 19.3217 20.6333Z" stroke="#155AB7" stroke-width="3" stroke-miterlimit="10"/>
<path id="Vector_2" d="M1.74999 41.3033L3.26666 33.7849C4.00789 30.0719 6.01254 26.7304 8.93961 24.3287C11.8667 21.927 15.5354 20.6135 19.3217 20.6116C22.9299 20.6044 26.4374 21.8015 29.2883 24.0133" stroke="#155AB7" stroke-width="3" stroke-miterlimit="10"/>
<path id="Vector_3" d="M34.835 47.5C41.6916 47.5 47.25 41.9417 47.25 35.085C47.25 28.2284 41.6916 22.67 34.835 22.67C27.9784 22.67 22.42 28.2284 22.42 35.085C22.42 41.9417 27.9784 47.5 34.835 47.5Z" stroke="#155AB7" stroke-width="3" stroke-miterlimit="10"/>
<path id="Vector_4" d="M41.0533 30.9467L33.8167 38.1833L29.6783 34.0667" stroke="#155AB7" stroke-width="3" stroke-miterlimit="10"/>
</g>
</svg>
