<svg width="16" height="17" viewBox="0 0 16 17" fill="none" xmlns="http://www.w3.org/2000/svg">
<g id="icn-uk-paid-search" clip-path="url(#clip0_102_25)">
<path id="Vector" fill-rule="evenodd" clip-rule="evenodd" d="M7.0348 2.245C4.05805 2.245 1.6449 4.65814 1.6449 7.6349C1.6449 10.6117 4.05805 13.0248 7.0348 13.0248C8.52625 13.0248 9.87504 12.42 10.8517 11.4405C11.8246 10.4647 12.4247 9.12063 12.4247 7.6349C12.4247 4.65814 10.0116 2.245 7.0348 2.245ZM0.133789 7.6349C0.133789 3.82357 3.22348 0.733887 7.0348 0.733887C10.8462 0.733887 13.9358 3.82357 13.9358 7.6349C13.9358 9.26582 13.3694 10.7655 12.4235 11.9463L13.4771 13.0086L13.4792 13.0107L15.6456 15.1771L14.5771 16.2456L12.4064 14.0749L11.3559 13.0159C10.1736 13.9663 8.67021 14.5359 7.0348 14.5359C3.22348 14.5359 0.133789 11.4462 0.133789 7.6349Z" fill="#8C94A8"/>
</g>
<defs>
<clipPath id="clip0_102_25">
<rect width="16" height="16" fill="white" transform="translate(0 0.600098)"/>
</clipPath>
</defs>
</svg>
