<svg width="34" height="34" viewBox="0 0 34 34" fill="none" xmlns="http://www.w3.org/2000/svg">
<path id="Vector" d="M23.5193 10.1763C23.5259 10.1763 23.5346 10.1763 23.5434 10.1763C23.7724 10.1763 23.9849 10.2497 24.1591 10.3761L24.1558 10.3738C24.2829 10.4878 24.3684 10.6481 24.3892 10.8288V10.8321C24.4111 10.9699 24.4232 11.1279 24.4232 11.2893C24.4232 11.3627 24.421 11.4349 24.4155 11.5072V11.497C24.169 14.1712 23.0997 20.6562 22.5562 23.6499C22.3261 24.9175 21.8737 25.342 21.4354 25.3826C20.4833 25.474 19.7602 24.7347 18.8377 24.1116C17.3937 23.1351 16.5774 22.5278 15.1761 21.5762C13.5557 20.4779 14.6064 19.8717 15.5289 18.8851C15.7711 18.6255 19.9684 14.6916 20.0506 14.3349C20.0549 14.3134 20.0571 14.2897 20.0571 14.2649C20.0571 14.1768 20.0254 14.0967 19.9739 14.0357C19.9169 13.9973 19.8457 13.9759 19.7712 13.9759C19.7219 13.9759 19.6748 13.9861 19.6309 14.003L19.6331 14.0019C19.4885 14.0357 17.1819 15.6063 12.7132 18.7135C12.2257 19.1098 11.6099 19.3604 10.9394 19.3897H10.9328C9.98292 19.2712 9.12067 19.0533 8.30225 18.7429L8.38332 18.77C7.35563 18.4246 6.5394 18.2428 6.60952 17.6581C6.64677 17.3541 7.05361 17.0429 7.83003 16.7246C12.6128 14.5776 15.8021 13.1624 17.3981 12.4791C19.1587 11.5162 21.1999 10.7238 23.3462 10.2102L23.5182 10.1752L23.5193 10.1763ZM16.7352 0C7.6394 0.0225764 0.27356 7.62516 0.27356 17C0.27356 26.3884 7.66021 34 16.7736 34C25.8869 34 33.2736 26.3895 33.2736 17C33.2736 7.62516 25.9077 0.0225764 16.8141 0H16.8119C16.7863 0 16.7608 0 16.7352 0Z" fill="#155AB7"/>
</svg>
