<svg width="34" height="34" viewBox="0 0 34 34" fill="none" xmlns="http://www.w3.org/2000/svg">
<path id="Exclude" fill-rule="evenodd" clip-rule="evenodd" d="M16.9103 33.2736C26.0986 33.2736 33.5471 25.825 33.5471 16.6368C33.5471 7.44854 26.0986 0 16.9103 0C7.7221 0 0.27356 7.44854 0.27356 16.6368C0.27356 25.825 7.7221 33.2736 16.9103 33.2736ZM26.2184 11.3962C26.9109 11.3962 27.0574 11.7537 26.9109 12.2412C26.6201 13.582 23.8259 17.526 23.8249 17.5249C23.5832 17.9149 23.4849 18.1089 23.8249 18.5481C23.945 18.7161 24.2004 18.9668 24.4926 19.2537C24.7932 19.5489 25.1329 19.8824 25.4045 20.2035C26.3899 21.3137 27.1327 22.252 27.3388 22.8967C27.5271 23.5446 27.1996 23.8727 26.5448 23.8727H24.2517C23.6381 23.8727 23.3286 23.5277 22.6599 22.7825C22.3766 22.4668 22.0289 22.0792 21.5663 21.6156C20.2054 20.302 19.6216 20.1301 19.2827 20.1301C18.8214 20.1301 18.6822 20.2622 18.6822 20.9185V22.9795C18.6822 23.5457 18.5023 23.8738 17.0451 23.8738C14.6139 23.8738 11.9453 22.3956 10.0497 19.6688C7.20643 15.6756 6.42917 12.6563 6.42917 12.0462C6.42917 11.7065 6.55994 11.3973 7.21584 11.3973H9.50891C10.0947 11.3973 10.3155 11.6541 10.5341 12.2905C11.6566 15.5655 13.5479 18.4265 14.3252 18.4265C14.6181 18.4265 14.751 18.2913 14.751 17.5501V14.166C14.6985 13.2011 14.3624 12.7841 14.1136 12.4754C13.9601 12.285 13.8398 12.1358 13.8398 11.9246C13.8398 11.6667 14.0595 11.3962 14.4235 11.3962H18.0284C18.5148 11.3962 18.6833 11.6562 18.6833 12.2412V16.7942C18.6833 17.2817 18.8946 17.4515 19.04 17.4515C19.3308 17.4515 19.5745 17.2817 20.1081 16.7439C21.7609 14.8956 22.9273 12.0451 22.9273 12.0451C23.0738 11.7055 23.3405 11.3962 23.9243 11.3962H26.2184Z" fill="#155AB7"/>
</svg>
