<svg width="34" height="34" viewBox="0 0 34 34" fill="none" xmlns="http://www.w3.org/2000/svg">
<g id="Icons">
<g id="Color-">
<path id="Whatsapp" fill-rule="evenodd" clip-rule="evenodd" d="M16.632 0C7.46039 0 0 7.46248 0 16.6366C0 20.275 1.17334 23.6492 3.16793 26.388L1.09497 32.5691L7.48963 30.5254C10.1197 32.2663 13.2584 33.2736 16.6416 33.2736C25.8132 33.2736 33.2736 25.8108 33.2736 16.6369C33.2736 7.46278 25.8132 0.000275012 16.6416 0.000275012L16.632 0ZM11.9874 8.45067C11.6648 7.67806 11.4203 7.64881 10.9316 7.62894C10.7652 7.61928 10.5798 7.60962 10.3742 7.60962C9.73837 7.60962 9.07361 7.79539 8.67265 8.20612C8.18394 8.70491 6.97138 9.86865 6.97138 12.2552C6.97138 14.6418 8.71183 16.9499 8.94639 17.2729C9.19089 17.5953 12.3395 22.5639 17.2283 24.5888C21.0513 26.1732 22.1858 26.0264 23.0559 25.8406C24.3269 25.5668 25.9208 24.6275 26.3218 23.4933C26.7227 22.3585 26.7227 21.3902 26.6052 21.1848C26.4879 20.9794 26.165 20.8624 25.6763 20.6176C25.1876 20.373 22.8114 19.1993 22.3616 19.0428C21.9214 18.8766 21.5011 18.9354 21.1689 19.405C20.6995 20.0602 20.2401 20.7255 19.8683 21.1263C19.575 21.4393 19.0957 21.4785 18.695 21.3121C18.1571 21.0874 16.6516 20.5588 14.7936 18.9059C13.3561 17.6248 12.3784 16.0308 12.095 15.5516C11.8113 15.0627 12.0657 14.7787 12.2904 14.5148C12.5349 14.2114 12.7695 13.9964 13.0139 13.7126C13.2584 13.4292 13.3953 13.2823 13.5518 12.9497C13.7182 12.627 13.6006 12.2944 13.4833 12.0498C13.366 11.8053 12.3884 9.41871 11.9874 8.45067Z" fill="#155AB7"/>
</g>
</g>
</svg>
